HIERARCHY
ROOT hip
{
	OFFSET 0.000000 0.000000 0.000000 
	CHANNELS 6 Xposition Yposition Zposition Xrotation Zrotation Yrotation
	JOINT abdomen
	{
		OFFSET 0.000000 3.402643 0.000000 
		CHANNELS 3 Xrotation Zrotation Yrotation
		JOINT chest
		{
			OFFSET 0.000000 8.438565 -0.680529 
			CHANNELS 3 Xrotation Zrotation Yrotation
			JOINT neck
			{
				OFFSET 0.000000 10.207942 -0.272212 
				CHANNELS 3 Xrotation Zrotation Yrotation
				JOINT head
				{
					OFFSET 0.000000 3.130431 0.000000 
					CHANNELS 3 Xrotation Zrotation Yrotation
					End Site
					{
						OFFSET 0.000000 3.130435 0.000000 
					}
				}
			}
			JOINT lCollar
			{
				OFFSET 3.470700 6.669187 -0.816635 
				CHANNELS 3 Yrotation Zrotation Xrotation
				JOINT lShldr
				{
					OFFSET 3.198488 0.000000 0.000000 
					CHANNELS 3 Zrotation Yrotation Xrotation
					JOINT lForeArm
					{
						OFFSET 10.139888 0.000000 0.000000 
						CHANNELS 3 Yrotation Zrotation Xrotation
						JOINT lHand
						{
							OFFSET 8.370511 0.000000 0.000000 
							CHANNELS 3 Zrotation Yrotation Xrotation
							End Site
							{
								OFFSET 4.083176 0.000000 0.000000 
							}
						}
					}
				}
			}
			JOINT rCollar
			{
				OFFSET -3.470700 6.669187 -0.816635 
				CHANNELS 3 Yrotation Zrotation Xrotation
				JOINT rShldr
				{
					OFFSET -3.198488 0.000000 0.000000 
					CHANNELS 3 Zrotation Yrotation Xrotation
					JOINT rForeArm
					{
						OFFSET -10.139888 0.000000 0.000000 
						CHANNELS 3 Yrotation Zrotation Xrotation
						JOINT rHand
						{
							OFFSET -8.370511 0.000000 0.000000 
							CHANNELS 3 Zrotation Yrotation Xrotation
							End Site
							{
								OFFSET -4.083176 0.000000 0.000000 
							}
						}
					}
				}
			}
		}
	}
	JOINT lThigh
	{
		OFFSET 5.308129 -1.633274 1.361059 
		CHANNELS 3 Xrotation Zrotation Yrotation
		JOINT lShin
		{
			OFFSET -2.041588 -20.007561 0.000000 
			CHANNELS 3 Xrotation Zrotation Yrotation
			JOINT lFoot
			{
				OFFSET 0.000000 -19.190928 -1.224953 
				CHANNELS 3 Xrotation Yrotation Zrotation
				End Site
				{
					OFFSET 0.000000 -2.449906 4.627600 
				}
			}
		}
	}
	JOINT rThigh
	{
		OFFSET -5.308129 -1.633274 1.361059 
		CHANNELS 3 Xrotation Zrotation Yrotation
		JOINT rShin
		{
			OFFSET 2.041588 -20.007561 0.000000 
			CHANNELS 3 Xrotation Zrotation Yrotation
			JOINT rFoot
			{
				OFFSET 0.000000 -19.190928 -1.224953 
				CHANNELS 3 Xrotation Yrotation Zrotation
				End Site
				{
					OFFSET 0.000000 -2.449906 4.627600 
				}
			}
		}
	}
}
MOTION
Frames: 16
Frame Time: 0.011111
23.834457 46.919918 4.826231 -10.034197 45.082710 -119.059486 41.398758 -5.028722 -6.425550 -20.400797 -3.359063 -1.194660 -12.267288 3.020152 6.727228 -21.726187 1.210048 13.246511 -4.921947 -9.476123 -0.539306 -10.834283 -76.495857 16.278622 -36.928055 3.579395 3.345791 8.524705 12.647240 -43.675182 3.322233 12.489151 -0.342371 44.699085 83.571625 53.653736 71.870705 -8.906994 18.026293 -8.534408 -12.637552 84.427589 -100.336967 19.990440 -18.948166 38.266113 -4.804508 -5.900251 -12.129304 3.369260 -2.398576 -57.653927 -13.309140 -20.184494 67.502747 1.846278 8.696823 -21.276228 18.523397 10.611439 
23.970736 46.609333 4.933730 -10.546288 45.262417 -120.054771 41.622284 -5.125792 -6.610837 -20.420334 -3.350386 -1.223031 -12.078890 3.002526 6.896777 -21.958784 1.011145 13.626685 -4.921947 -9.476123 -0.539306 -10.409310 -76.728416 14.996861 -37.108261 3.651750 3.407101 8.524705 12.647240 -43.294323 3.322233 12.489151 -0.342371 39.000107 84.151802 48.313782 72.399223 -8.814402 18.285389 -8.534408 -12.637552 85.326027 -102.390083 20.175850 -18.246546 41.668407 -4.531189 -6.307250 -11.630954 0.948450 -2.925877 -60.591667 -14.421314 -20.348316 71.380470 1.357934 8.966949 -19.114616 19.520008 10.450110 
24.093449 46.222004 5.055452 -10.843871 45.316135 -120.919182 41.882542 -5.055336 -6.654899 -20.459541 -3.449546 -1.247708 -11.842319 3.006522 7.062416 -22.223087 0.747701 14.040948 -4.921947 -9.476123 -0.539306 -10.211270 -76.791039 13.612936 -37.368412 3.748497 3.490811 8.524705 12.647240 -43.079479 3.322233 12.489151 -0.342371 33.397533 84.608032 43.008141 73.062836 -8.694596 18.638592 -8.534408 -12.637552 86.136581 -104.670410 20.263887 -17.863783 45.809921 -4.179605 -6.773452 -11.655224 -1.277012 -3.387813 -63.406605 -15.517008 -20.460041 75.313057 0.830909 9.185446 -17.617880 20.168900 10.261434 
24.201941 45.757935 5.185775 -10.951876 45.217834 -121.698303 42.203098 -4.877100 -6.612539 -20.489065 -3.616625 -1.261427 -11.595640 3.033009 7.253510 -22.501381 0.422635 14.495996 -4.921947 -9.476123 -0.539306 -10.163383 -76.720474 12.294507 -37.639542 3.858487 3.578594 8.524705 12.647240 -42.776745 3.322233 12.489151 -0.342371 28.131544 84.945587 37.951668 73.845543 -8.533496 19.036169 -8.534408 -12.637552 86.800636 -107.073601 20.331966 -17.692802 50.579441 -3.717240 -7.281945 -11.971404 -3.204274 -3.833506 -66.061508 -16.580256 -20.532671 79.252037 0.303407 9.380577 -16.812098 20.487463 10.148429 
24.297201 45.224407 5.318745 -10.900303 44.963062 -122.410667 42.599644 -4.660003 -6.533369 -20.499046 -3.793288 -1.285789 -11.377995 3.073203 7.450970 -22.740351 0.079345 15.012042 -4.921947 -9.476123 -0.539306 -10.222266 -76.535049 11.227674 -37.879890 3.947721 3.665497 8.524705 12.647240 -42.229866 3.322233 12.489151 -0.342371 23.732807 85.168365 33.690544 74.734024 -8.327418 19.506222 -8.534408 -12.637552 87.249863 -109.484222 20.400578 -17.697138 55.854939 -3.183830 -7.793289 -12.389062 -4.838049 -4.236525 -68.533356 -17.615944 -20.577345 83.149666 -0.243665 9.529500 -16.574179 20.579567 10.103447 
24.382208 44.629684 5.448405 -10.765838 44.563904 -123.111511 43.027184 -4.463626 -6.436931 -20.509016 -3.940188 -1.291290 -11.199148 3.138192 7.652942 -22.915546 -0.285029 15.531718 -4.921947 -9.476123 -0.539306 -10.366467 -76.263710 10.608151 -38.040897 4.010909 3.712321 8.524705 12.647240 -41.302132 3.322233 12.489151 -0.342371 20.702070 85.297974 30.693211 75.706184 -8.073194 20.016546 -8.534408 -12.637552 87.474472 -111.856377 20.527536 -17.803965 61.478977 -2.588343 -8.293558 -12.723597 -6.188929 -4.600405 -70.877007 -18.680321 -20.528496 86.967651 -0.780647 9.660173 -16.651108 20.505762 10.101478 
24.452991 43.995605 5.571782 -10.557032 43.959377 -123.803268 43.587830 -4.376663 -6.370277 -20.577627 -4.020076 -1.294333 -11.039147 3.177742 7.868903 -23.002348 -0.619266 16.050146 -4.921947 -9.476123 -0.539306 -10.625250 -75.877914 10.523095 -38.131485 4.049576 3.747404 8.524705 12.647240 -39.954475 3.322233 12.489151 -0.342371 19.527176 85.346657 29.535057 76.764076 -7.755726 20.595446 -8.534408 -12.637552 87.523293 -114.055145 20.722742 -17.949858 67.286545 -1.885644 -8.734472 -12.848413 -7.280714 -4.899324 -73.025833 -19.735540 -20.415382 90.640388 -1.298298 9.729568 -16.800571 20.402552 10.097823 
24.513191 43.325470 5.687549 -10.362409 43.220406 -124.507256 44.173031 -4.381761 -6.347582 -20.685232 -3.993481 -1.297374 -10.878970 3.175927 8.082906 -23.025984 -0.883497 16.565849 -4.921947 -9.476123 -0.539306 -11.076198 -75.370506 10.688323 -38.241615 4.086570 3.784586 8.524705 12.647240 -38.518929 3.322233 12.489151 -0.342371 19.791927 85.346626 29.846823 77.875328 -7.376969 21.219845 -8.534408 -12.637552 87.415878 -116.057304 20.986423 -18.078012 73.141907 -1.142779 -9.106374 -12.716730 -8.281082 -5.152372 -75.120476 -20.874363 -20.207825 94.137985 -1.806375 9.766075 -16.782682 20.372705 10.098153 
24.562477 42.625565 5.797033 -10.258344 42.377087 -125.259293 44.768940 -4.555716 -6.412095 -20.841555 -3.840827 -1.291247 -10.747347 3.129203 8.304895 -22.960974 -1.106850 17.061729 -4.921947 -9.476123 -0.539306 -11.726077 -74.742096 11.113079 -38.372402 4.136560 3.826955 8.524705 12.647240 -36.956429 3.322233 12.489151 -0.342371 20.974707 85.321915 31.132256 79.011627 -6.931406 21.874966 -8.534408 -12.637552 87.240097 -117.831238 21.328382 -18.145077 78.921173 -0.374689 -9.396207 -12.393791 -9.247649 -5.387369 -77.241005 -22.076424 -19.869043 97.433250 -2.274220 9.763045 -16.513031 20.576424 10.085003 
24.600847 41.898869 5.902550 -10.259937 41.413723 -126.055771 45.355194 -4.862583 -6.548833 -21.027094 -3.640026 -1.285723 -10.664639 3.115703 8.508429 -22.833578 -1.281292 17.529446 -4.921947 -9.476123 -0.539306 -12.498762 -74.039886 11.778631 -38.513439 4.193149 3.875941 8.524705 12.647240 -35.208389 3.322233 12.489151 -0.342371 22.549652 85.296997 32.807194 80.147324 -6.421072 22.578257 -8.534408 -12.637552 86.995956 -119.394821 21.767803 -18.092587 84.567467 0.409836 -9.633781 -11.878428 -10.326417 -5.586049 -79.441597 -23.368076 -19.380756 100.504700 -2.724123 9.761416 -15.930305 20.964056 10.039773 
24.626646 41.144722 6.005417 -10.385828 40.435524 -126.879257 45.874187 -5.277112 -6.756118 -21.222311 -3.409812 -1.272254 -10.592200 3.139719 8.695152 -22.702366 -1.483691 17.969763 -4.921947 -9.476123 -0.539306 -13.379924 -73.273651 12.626127 -38.684250 4.254639 3.935073 8.524705 12.647240 -33.343151 3.322233 12.489151 -0.342371 23.886856 85.299393 34.229359 81.243416 -5.847817 23.283911 -8.534408 -12.637552 86.712746 -120.771935 22.285275 -17.936985 89.950127 1.181577 -9.750518 -11.136073 -11.577825 -5.822122 -81.786858 -24.716845 -18.757565 103.344376 -3.145401 9.735436 -15.125220 21.643044 10.040892 
24.637560 40.358482 6.104649 -10.599567 39.440804 -127.695412 46.302383 -5.743324 -7.001889 -21.407738 -3.209002 -1.269485 -10.549659 3.284787 8.867911 -22.608759 -1.754207 18.409086 -4.921947 -9.476123 -0.539306 -14.319021 -72.491158 13.667076 -38.865597 4.321906 3.991278 8.524705 12.647240 -31.341198 3.322233 12.489151 -0.342371 24.569492 85.348969 34.951027 82.268013 -5.227368 23.998913 -8.534408 -12.637552 86.419785 -121.976089 22.861423 -17.715094 95.031265 1.902993 -9.827035 -10.133615 -13.034411 -6.007987 -84.214180 -26.080688 -18.052423 105.933990 -3.505344 9.679784 -14.125185 22.526285 10.001763 
24.629622 39.534874 6.196932 -10.824169 38.433578 -128.434784 46.686096 -6.218771 -7.234702 -21.573650 -3.046385 -1.257608 -10.518357 3.523592 9.003277 -22.573212 -2.107263 18.825579 -4.921947 -9.476123 -0.539306 -15.269784 -71.730240 14.873037 -39.026817 4.383380 4.050231 8.524705 12.647240 -29.231823 3.322233 12.489151 -0.342371 24.196545 85.452614 34.602169 83.192909 -4.580616 24.719217 -8.534408 -12.637552 86.185402 -122.972504 23.457083 -17.424114 99.765579 2.588157 -9.799825 -8.781109 -14.747162 -6.120453 -86.669098 -27.480043 -17.292833 108.281075 -3.857551 9.610146 -13.000358 23.600616 9.985352 
24.604815 38.661648 6.276978 -11.027064 37.479996 -129.035431 47.009624 -6.648778 -7.454021 -21.729826 -2.922984 -1.255135 -10.488600 3.856501 9.111562 -22.645298 -2.530471 19.228968 -4.921947 -9.476123 -0.539306 -16.266178 -70.982437 16.184525 -39.187630 4.436901 4.102669 8.524705 12.647240 -27.161510 3.322233 12.489151 -0.342371 22.599545 85.596870 32.977760 84.004295 -3.916765 25.436825 -8.534408 -12.637552 86.019386 -123.782906 24.091722 -17.062544 104.104057 3.230376 -9.725237 -7.060850 -16.690079 -6.118705 -89.094131 -28.910580 -16.533440 110.454453 -4.169137 9.545186 -11.735008 24.803259 9.879189 
24.560822 37.743771 6.342470 -11.088581 36.509159 -129.441711 47.405922 -6.983829 -7.632689 -21.905590 -2.829282 -1.250953 -10.469702 4.216117 9.194966 -22.778919 -2.946555 19.565584 -4.921947 -9.476123 -0.539306 -17.314756 -70.277794 17.455151 -39.309010 4.485956 4.145813 8.524705 12.647240 -25.315805 3.322233 12.489151 -0.342371 19.008579 85.761505 29.376078 84.694138 -3.251842 26.159502 -8.534408 -12.637552 85.990097 -124.246964 24.746176 -16.631325 107.920380 3.778003 -9.653058 -5.370852 -18.765116 -6.069235 -91.302902 -30.347456 -15.820480 112.415810 -4.432624 9.459536 -10.494317 25.982590 9.734719 
24.499300 36.781563 6.394401 -10.983922 35.556175 -129.619141 47.846836 -7.156892 -7.765346 -22.100870 -2.736520 -1.256178 -10.228865 4.486276 9.276824 -23.203959 -3.267199 19.860409 -4.921947 -9.476123 -0.539306 -18.433603 -69.577965 18.577658 -39.389709 4.516213 4.175385 8.524705 12.647240 -23.772837 3.322233 12.489151 -0.342371 13.126811 85.887245 23.503872 85.246849 -2.620658 26.888227 -8.534408 -12.637552 86.097511 -124.377304 25.399912 -16.124197 111.292908 4.253250 -9.548739 -4.450519 -20.902628 -6.173254 -93.251366 -31.845446 -15.231662 114.221382 -4.676454 9.395413 -9.459423 26.954803 9.585663 
